<svg width="34" height="34" viewBox="0 0 34 34" fill="none" xmlns="http://www.w3.org/2000/svg">
<g clip-path="url(#clip0_12_2)">
<path d="M17 0C26.3886 0 34 7.61136 34 17C34 26.3886 26.3886 34 17 34C7.61137 34 0 26.3886 0 17C0 7.61136 7.61137 0 17 0Z" fill="#666A77"/>
<path d="M25.755 25.1615C24.0558 26.9249 21.6835 27.6938 19.1188 27.3089C16.3293 26.8924 13.797 25.0333 11.6164 21.8597C11.1358 21.1542 10.6551 20.4487 10.2062 19.7432C9.08417 18.0123 8.02631 16.3772 6.80772 15.2869C6.55118 15.0628 6.51949 14.6463 6.74359 14.3897C6.87186 14.2614 7.03259 14.1649 7.225 14.1649C7.38495 14.1649 7.5449 14.229 7.64149 14.3256C8.98758 15.5434 10.1104 17.2426 11.264 19.0384C11.713 19.7115 12.1619 20.417 12.6426 21.1217C14.63 24.0071 16.874 25.6422 19.2788 26.027C22.0359 26.4435 23.7992 25.3215 24.7929 24.2636C25.4343 23.6223 25.9149 22.8209 26.2356 21.9872C26.0432 22.1479 25.8191 22.3079 25.5943 22.4361C24.5689 23.0775 23.222 23.2382 21.9717 22.8851C20.7539 22.5327 19.8877 21.5707 19.4395 20.801C18.7981 19.679 18.9264 18.3971 19.0547 17.724C19.2146 16.8578 19.6636 16.0889 20.3691 15.3834C21.0421 14.7104 22.1317 14.2931 22.8696 14.1973C23.222 14.1648 23.5427 14.4214 23.5744 14.7745C23.6068 15.1269 23.3503 15.4476 22.9979 15.4793C22.5806 15.5117 21.7476 15.7999 21.2662 16.2814C20.7539 16.7937 20.4332 17.3392 20.3366 17.9481C20.2725 18.3329 20.1442 19.3584 20.5932 20.1604C20.8814 20.6728 21.5228 21.3783 22.3565 21.6031C23.2544 21.8597 24.2157 21.7631 24.9529 21.3141C25.7225 20.8335 26.2032 20.1921 26.588 19.0384C26.6846 18.7494 26.9411 18.5895 27.2294 18.5895C27.5176 18.6212 27.7741 18.8136 27.8066 19.1026C28.1914 21.09 27.3576 23.494 25.755 25.1615Z" fill="white"/>
<path d="M16.7133 8.29754C16.3926 8.4575 16.0078 8.32923 15.8479 8.00855C15.6238 7.55959 15.1748 7.30382 14.6934 7.30382C14.2128 7.30382 13.7638 7.55959 13.5397 8.00855L13.5073 8.041C13.5073 8.07268 13.5073 8.07268 13.4756 8.10514C13.0266 8.97059 12.1612 9.51536 11.1991 9.51536C10.2379 9.51536 9.33996 8.97059 8.891 8.10514C8.73105 7.78446 8.85932 7.39963 9.17923 7.23968C9.27582 7.20722 9.37164 7.17555 9.46823 7.17555C9.69232 7.17555 9.91718 7.30381 10.0455 7.5279C10.2695 7.97686 10.7185 8.2334 11.1991 8.2334C11.6805 8.2334 12.1287 7.97686 12.3536 7.5279L12.3853 7.49546C12.3853 7.46377 12.3853 7.46377 12.4177 7.43209C12.8667 6.56586 13.7321 6.02109 14.6934 6.02109C15.6555 6.02109 16.5534 6.56586 17.0023 7.43209C17.1623 7.752 17.034 8.13681 16.7133 8.29754Z" fill="white"/>
<path d="M23.7034 12.1133C23.3828 12.2732 22.9979 12.145 22.8372 11.8243C22.6131 11.3753 22.1641 11.1188 21.6835 11.1188C21.2029 11.1188 20.7539 11.3753 20.5291 11.8243C20.4974 11.8567 20.4649 11.9209 20.4332 11.9525C19.9843 12.7863 19.1188 13.2994 18.1568 13.2994C17.1955 13.2994 16.3293 12.7539 15.8811 11.9209C15.8487 11.8884 15.8487 11.8567 15.817 11.8243C15.5921 11.3753 15.1432 11.1188 14.6625 11.1188C14.1819 11.1188 13.7329 11.3753 13.5081 11.8243L13.4764 11.8567C13.4764 11.8884 13.4764 11.8884 13.4439 11.9209C12.9957 12.7863 12.1295 13.3311 11.1682 13.3311C10.2062 13.3311 9.30906 12.7863 8.86011 11.9209C8.69938 11.6002 8.82766 11.2154 9.14834 11.0546C9.24493 11.023 9.34075 10.9905 9.43734 10.9905C9.66143 10.9905 9.88552 11.1188 10.0138 11.3436C10.2387 11.7926 10.6876 12.0491 11.1682 12.0491C11.6489 12.0491 12.0978 11.7926 12.3219 11.3436L12.3544 11.3112C12.3544 11.2795 12.3544 11.2795 12.3861 11.247C12.835 10.3816 13.7005 9.83682 14.6625 9.83682C15.6246 9.83682 16.5217 10.3816 16.9707 11.247C16.9707 11.2795 17.0031 11.2795 17.0031 11.3112C17.2272 11.7601 17.6762 12.0167 18.1568 12.0167C18.6382 12.0167 19.0864 11.7601 19.3112 11.3112C19.3429 11.2795 19.3754 11.2154 19.4071 11.1829C19.856 10.3499 20.7215 9.83682 21.6835 9.83682C22.6456 9.83682 23.5427 10.3816 23.9916 11.247C24.1516 11.5677 24.0241 11.9525 23.7034 12.1133Z" fill="white"/>
</g>
<defs>
<clipPath id="clip0_12_2">
<rect width="34" height="34" fill="white"/>
</clipPath>
</defs>
</svg>
