<svg width="34" height="34" viewBox="0 0 34 34" fill="none" xmlns="http://www.w3.org/2000/svg">
<g clip-path="url(#clip0_12_7)">
<path d="M17 -1.08372e-05C7.61136 -1.08372e-05 9.53674e-07 7.61135 9.53674e-07 17C9.53674e-07 26.3886 7.61136 34 17 34C26.3894 34 34 26.3886 34 17C34 7.61135 26.3894 -1.08372e-05 17 -1.08372e-05Z" fill="#666A77"/>
<path d="M10.3724 18.1491C10.8306 18.1491 11.2479 17.9682 11.5431 17.6769L15.9314 19.5067V24.6562C15.331 24.9073 14.9029 25.5008 14.9029 26.1947C14.9029 27.1104 15.6571 27.8646 16.5936 27.8646C17.5201 27.8646 18.2836 27.1204 18.2836 26.1947C18.2836 25.5008 17.8563 24.9174 17.2551 24.6562V19.5168L21.7562 17.6468C22.0614 17.9682 22.4895 18.1591 22.9779 18.1591C23.9044 18.1591 24.6678 17.415 24.6678 16.49C24.6678 15.5743 23.9144 14.8201 22.9779 14.8201C22.0715 14.8201 21.3389 15.5342 21.298 16.4197L17.2551 18.0988V6.14088C17.2551 5.78929 16.9599 5.49719 16.6037 5.49719C16.2474 5.49719 15.9523 5.78929 15.9523 6.14088V18.0988L12.0724 16.49C12.0724 15.5743 11.319 14.8302 10.3824 14.8302C9.45593 14.8302 8.69171 15.5743 8.69171 16.5001C8.68166 17.4049 9.43507 18.1491 10.3724 18.1491Z" fill="white"/>
</g>
<defs>
<clipPath id="clip0_12_7">
<rect width="34" height="34" fill="white"/>
</clipPath>
</defs>
</svg>
